<svg width="598" height="603" viewBox="0 0 598 603" fill="none" xmlns="http://www.w3.org/2000/svg">
<path d="M122 152.586C167.6 168.586 185 159.252 188 152.586C209 118.586 169 107.586 146 68.5856C123 29.5856 166 -6.41439 203 17.5856C240 41.5856 289 99.5856 299 186.586C307 256.186 265 260.252 243 253.586C211.667 243.586 137.6 223.786 92 224.586C35 225.586 -7 193.586 10 159.586C27 125.586 65 132.586 122 152.586Z" fill="white"/>
<circle cx="81" cy="64.5856" r="43" fill="white"/>
<path d="M143.17 481.118C159.34 435.579 150.072 418.144 143.417 415.119C109.496 393.992 98.3461 433.95 59.2603 456.804C20.1744 479.658 -15.6643 436.523 8.47413 399.613C32.6126 362.703 90.7957 313.921 177.833 304.247C247.462 296.508 251.371 338.523 244.622 360.498C234.505 391.793 214.428 465.785 215.057 511.388C215.843 568.391 183.686 610.271 149.75 593.144C115.814 576.017 122.956 538.043 143.17 481.118Z" fill="white"/>
<circle cx="55.0168" cy="521.788" r="43" transform="rotate(-89.7854 55.0168 521.788)" fill="white"/>
<path d="M478.624 458.562C432.927 442.84 415.584 452.279 412.625 458.964C391.832 493.091 431.898 503.847 455.135 542.707C478.371 581.566 435.591 617.827 398.446 594.052C361.3 570.278 311.949 512.576 301.42 425.639C292.997 356.089 334.972 351.767 357.012 358.3C388.406 368.109 462.591 387.459 508.185 386.381C565.178 385.035 607.372 416.779 590.579 450.882C573.786 484.984 535.744 478.216 478.624 458.562Z" fill="white"/>
<circle cx="520.158" cy="546.312" r="43" transform="rotate(179.652 520.158 546.312)" fill="white"/>
<path d="M452.081 118.628C434.827 163.769 443.675 181.42 450.257 184.603C483.663 206.535 495.765 166.855 535.386 144.942C575.007 123.029 609.804 167.008 584.79 203.33C559.776 239.652 500.444 287.03 413.2 294.621C343.406 300.693 340.502 258.597 347.774 236.79C358.637 205.745 380.477 132.254 380.938 86.6491C381.515 29.6432 414.664 -11.456 448.181 6.47762C481.698 24.4112 473.65 62.2031 452.081 118.628Z" fill="white"/>
<circle cx="541.181" cy="80.0774" r="43" transform="rotate(91.5844 541.181 80.0774)" fill="white"/>
</svg>
